<svg xmlns="http://www.w3.org/2000/svg" viewBox="0 0 220 60" width="220" height="60">
  <defs>
    <linearGradient id="grad1" x1="0%" y1="0%" x2="100%" y2="0%">
      <stop offset="0%" style="stop-color:#4CAF50;stop-opacity:1" />
      <stop offset="100%" style="stop-color:#66BB6A;stop-opacity:1" />
    </linearGradient>
    <filter id="shadow">
      <feDropShadow dx="0" dy="2" stdDeviation="2" flood-opacity="0.2"/>
    </filter>
  </defs>
  
  <!-- Leaf Icon - More prominent -->
  <g filter="url(#shadow)">
    <path d="M15 30 Q15 15, 25 15 Q30 15, 32 20 Q34 15, 40 15 Q50 15, 55 30 Q55 35, 50 40 Q42 42, 35 45 L25 48 Q15 45, 15 30" 
          fill="url(#grad1)" 
          opacity="1"/>
    <path d="M12 28 Q12 12, 25 10 Q32 10, 35 18 Q37 13, 42 12 Q54 12, 58 28 Q58 35, 52 42 Q43 44, 38 46 L25 50 Q12 45, 12 28" 
          fill="#2E7D32" 
          opacity="0.3"/>
  </g>
  
  <!-- Text - Clean and Bold -->
  <text x="72" y="38" font-family="'Poppins', -apple-system, BlinkMacSystemFont, sans-serif" font-size="28" font-weight="700" fill="#4CAF50" letter-spacing="-0.5px">Ayura</text>
  <text x="145" y="38" font-family="'Poppins', -apple-system, BlinkMacSystemFont, sans-serif" font-size="28" font-weight="700" fill="#2E7D32" letter-spacing="-0.5px">Well</text>
</svg>

